<svg version="1.1" xmlns="http://www.w3.org/2000/svg" width="505" height="367"><defs><clipPath id="IETAfKeIpAVN"><path fill="none" stroke="none" d="M 75.5 10.5 L 475.5 10.5 L 475.5 310.5 L 75.5 310.5 L 75.5 10.5"/></clipPath><clipPath id="yiUTmteuRyxQ"><path fill="none" stroke="none" d="M 75.5 10.5 L 475.5 10.5 L 475.5 310.5 L 75.5 310.5 L 75.5 10.5"/></clipPath><clipPath id="DloyxRqNmHqx"><path fill="none" stroke="none" d="M 75.5 10.5 L 475.5 10.5 L 475.5 310.5 L 75.5 310.5 L 75.5 10.5"/></clipPath><clipPath id="eDTDlzZywwTH"><path fill="none" stroke="none" d="M 75.5 10.5 L 475.5 10.5 L 475.5 310.5 L 75.5 310.5 L 75.5 10.5"/></clipPath><clipPath id="xrwAawZCWpVv"><path fill="none" stroke="none" d="M 75.5 10.5 L 475.5 10.5 L 475.5 310.5 L 75.5 310.5 L 75.5 10.5"/></clipPath><clipPath id="XMGpmPwmNayM"><path fill="none" stroke="none" d="M 75.5 10.5 L 475.5 10.5 L 475.5 310.5 L 75.5 310.5 L 75.5 10.5"/></clipPath><clipPath id="xfVsaxFKCJvK"><path fill="none" stroke="none" d="M 75.5 10.5 L 475.5 10.5 L 475.5 310.5 L 75.5 310.5 L 75.5 10.5"/></clipPath><clipPath id="csIuqThoZLNG"><path fill="none" stroke="none" d="M 75.5 10.5 L 475.5 10.5 L 475.5 310.5 L 75.5 310.5 L 75.5 10.5"/></clipPath><clipPath id="CwVXrWzeIxrm"><path fill="none" stroke="none" d="M 75.5 10.5 L 475.5 10.5 L 475.5 310.5 L 75.5 310.5 L 75.5 10.5"/></clipPath><clipPath id="HWawDTEWNqgb"><path fill="none" stroke="none" d="M 75.5 10.5 L 475.5 10.5 L 475.5 310.5 L 75.5 310.5 L 75.5 10.5"/></clipPath><clipPath id="gPFvBVidTgGW"><path fill="none" stroke="none" d="M 75.5 10.5 L 475.5 10.5 L 475.5 310.5 L 75.5 310.5 L 75.5 10.5"/></clipPath></defs><path fill="rgb(255,255,255)" stroke="none" paint-order="stroke" d="M 0.5 0.5 L 505.5 0.5 L 505.5 367.5 L 0.5 367.5 L 0.5 0.5" fill-opacity="1"/><rect fill="#FFFFFF" stroke="none" x="75" y="10" width="400" height="300" transform="matrix(1, 0, 0, 1, 0.5, 0.5)"/><path fill="rgb(255,255,255)" stroke="none" paint-order="stroke" d="M 75.5 10.5 L 475.5 10.5 L 475.5 310.5 L 75.5 310.5 L 75.5 10.5" fill-opacity="1"/><path fill="none" stroke="rgb(0,0,0)" paint-order="fill" d="M 101.58695983886719 169.84881591796875 L 101.58695983886719 147.79681396484375" stroke-opacity="1" stroke-linejoin="bevel" stroke-miterlimit="10" stroke-dasharray="" clip-path="url(#DloyxRqNmHqx)"/><path fill="none" stroke="rgb(0,0,0)" paint-order="fill" d="M 146.80435180664062 153.03631591796875 L 146.80435180664062 133.37747192382812" stroke-opacity="1" stroke-linejoin="bevel" stroke-miterlimit="10" stroke-dasharray="" clip-path="url(#DloyxRqNmHqx)"/><path fill="none" stroke="rgb(0,0,0)" paint-order="fill" d="M 209.4130401611328 195.12486267089844 L 209.4130401611328 178.34710693359375" stroke-opacity="1" stroke-linejoin="bevel" stroke-miterlimit="10" stroke-dasharray="" clip-path="url(#DloyxRqNmHqx)"/><path fill="none" stroke="rgb(0,0,0)" paint-order="fill" d="M 278.978271484375 266.6040344238281 L 278.978271484375 265.2202453613281" stroke-opacity="1" stroke-linejoin="bevel" stroke-miterlimit="10" stroke-dasharray="" clip-path="url(#DloyxRqNmHqx)"/><path fill="none" stroke="rgb(0,0,0)" paint-order="fill" d="M 338.10870361328125 286.1767883300781 L 338.10870361328125 285.47088623046875" stroke-opacity="1" stroke-linejoin="bevel" stroke-miterlimit="10" stroke-dasharray="" clip-path="url(#DloyxRqNmHqx)"/><path fill="none" stroke="rgb(0,0,0)" paint-order="fill" d="M 383.3260803222656 287.23236083984375 L 383.3260803222656 286.8027648925781" stroke-opacity="1" stroke-linejoin="bevel" stroke-miterlimit="10" stroke-dasharray="" clip-path="url(#DloyxRqNmHqx)"/><path fill="none" stroke="rgb(0,0,0)" paint-order="fill" d="M 414.63043212890625 286.8319396972656 L 414.63043212890625 286.4422302246094" stroke-opacity="1" stroke-linejoin="bevel" stroke-miterlimit="10" stroke-dasharray="" clip-path="url(#DloyxRqNmHqx)"/><path fill="none" stroke="rgb(0,0,0)" paint-order="fill" d="M 442.4565124511719 286.6944580078125 L 442.4565124511719 286.4187927246094" stroke-opacity="1" stroke-linejoin="bevel" stroke-miterlimit="10" stroke-dasharray="" clip-path="url(#DloyxRqNmHqx)"/><path fill="none" stroke="rgb(0,0,0)" paint-order="fill" d="M 449.4130554199219 287.20928955078125 L 449.4130554199219 286.7695617675781" stroke-opacity="1" stroke-linejoin="bevel" stroke-miterlimit="10" stroke-dasharray="" clip-path="url(#DloyxRqNmHqx)"/><path fill="none" stroke="rgb(0,0,0)" paint-order="fill" d="M 101.58695983886719 114.7091064453125 L 101.58695983886719 93.84984588623047" stroke-opacity="1" stroke-linejoin="bevel" stroke-miterlimit="10" stroke-dasharray="" clip-path="url(#DloyxRqNmHqx)"/><path fill="none" stroke="rgb(0,0,0)" paint-order="fill" d="M 146.80435180664062 86.04327392578125 L 146.80435180664062 54.55595779418945" stroke-opacity="1" stroke-linejoin="bevel" stroke-miterlimit="10" stroke-dasharray="" clip-path="url(#DloyxRqNmHqx)"/><path fill="none" stroke="rgb(0,0,0)" paint-order="fill" d="M 209.4130401611328 76.73812103271484 L 209.4130401611328 59.177242279052734" stroke-opacity="1" stroke-linejoin="bevel" stroke-miterlimit="10" stroke-dasharray="" clip-path="url(#DloyxRqNmHqx)"/><path fill="none" stroke="rgb(0,0,0)" paint-order="fill" d="M 278.978271484375 133.6801300048828 L 278.978271484375 126.69410705566406" stroke-opacity="1" stroke-linejoin="bevel" stroke-miterlimit="10" stroke-dasharray="" clip-path="url(#DloyxRqNmHqx)"/><path fill="none" stroke="rgb(0,0,0)" paint-order="fill" d="M 338.10870361328125 233.47073364257812 L 338.10870361328125 224.62098693847656" stroke-opacity="1" stroke-linejoin="bevel" stroke-miterlimit="10" stroke-dasharray="" clip-path="url(#DloyxRqNmHqx)"/><path fill="none" stroke="rgb(0,0,0)" paint-order="fill" d="M 383.3260803222656 273.5865783691406 L 383.3260803222656 269.36187744140625" stroke-opacity="1" stroke-linejoin="bevel" stroke-miterlimit="10" stroke-dasharray="" clip-path="url(#DloyxRqNmHqx)"/><path fill="none" stroke="rgb(0,0,0)" paint-order="fill" d="M 414.63043212890625 284.84912109375 L 414.63043212890625 284.0483703613281" stroke-opacity="1" stroke-linejoin="bevel" stroke-miterlimit="10" stroke-dasharray="" clip-path="url(#DloyxRqNmHqx)"/><path fill="none" stroke="rgb(0,0,0)" paint-order="fill" d="M 442.4565124511719 286.289794921875 L 442.4565124511719 285.9579162597656" stroke-opacity="1" stroke-linejoin="bevel" stroke-miterlimit="10" stroke-dasharray="" clip-path="url(#DloyxRqNmHqx)"/><path fill="none" stroke="rgb(0,0,0)" paint-order="fill" d="M 449.4130554199219 287.0583190917969 L 449.4130554199219 286.66217041015625" stroke-opacity="1" stroke-linejoin="bevel" stroke-miterlimit="10" stroke-dasharray="" clip-path="url(#DloyxRqNmHqx)"/><path fill="none" stroke="rgb(0,0,0)" paint-order="fill" d="M 96.58695983886719 169.84881591796875 L 106.58695983886719 169.84881591796875" stroke-opacity="1" stroke-linejoin="bevel" stroke-miterlimit="10" stroke-dasharray="" clip-path="url(#DloyxRqNmHqx)"/><path fill="none" stroke="rgb(0,0,0)" paint-order="fill" d="M 141.80435180664062 153.03631591796875 L 151.80435180664062 153.03631591796875" stroke-opacity="1" stroke-linejoin="bevel" stroke-miterlimit="10" stroke-dasharray="" clip-path="url(#DloyxRqNmHqx)"/><path fill="none" stroke="rgb(0,0,0)" paint-order="fill" d="M 204.4130401611328 195.12486267089844 L 214.4130401611328 195.12486267089844" stroke-opacity="1" stroke-linejoin="bevel" stroke-miterlimit="10" stroke-dasharray="" clip-path="url(#DloyxRqNmHqx)"/><path fill="none" stroke="rgb(0,0,0)" paint-order="fill" d="M 273.978271484375 266.6040344238281 L 283.978271484375 266.6040344238281" stroke-opacity="1" stroke-linejoin="bevel" stroke-miterlimit="10" stroke-dasharray="" clip-path="url(#DloyxRqNmHqx)"/><path fill="none" stroke="rgb(0,0,0)" paint-order="fill" d="M 333.10870361328125 286.1767883300781 L 343.10870361328125 286.1767883300781" stroke-opacity="1" stroke-linejoin="bevel" stroke-miterlimit="10" stroke-dasharray="" clip-path="url(#DloyxRqNmHqx)"/><path fill="none" stroke="rgb(0,0,0)" paint-order="fill" d="M 378.3260803222656 287.23236083984375 L 388.3260803222656 287.23236083984375" stroke-opacity="1" stroke-linejoin="bevel" stroke-miterlimit="10" stroke-dasharray="" clip-path="url(#DloyxRqNmHqx)"/><path fill="none" stroke="rgb(0,0,0)" paint-order="fill" d="M 409.63043212890625 286.8319396972656 L 419.63043212890625 286.8319396972656" stroke-opacity="1" stroke-linejoin="bevel" stroke-miterlimit="10" stroke-dasharray="" clip-path="url(#DloyxRqNmHqx)"/><path fill="none" stroke="rgb(0,0,0)" paint-order="fill" d="M 437.4565124511719 286.6944580078125 L 447.4565124511719 286.6944580078125" stroke-opacity="1" stroke-linejoin="bevel" stroke-miterlimit="10" stroke-dasharray="" clip-path="url(#DloyxRqNmHqx)"/><path fill="none" stroke="rgb(0,0,0)" paint-order="fill" d="M 444.4130554199219 287.20928955078125 L 454.4130554199219 287.20928955078125" stroke-opacity="1" stroke-linejoin="bevel" stroke-miterlimit="10" stroke-dasharray="" clip-path="url(#DloyxRqNmHqx)"/><path fill="none" stroke="rgb(0,0,0)" paint-order="fill" d="M 96.58695983886719 114.7091064453125 L 106.58695983886719 114.7091064453125" stroke-opacity="1" stroke-linejoin="bevel" stroke-miterlimit="10" stroke-dasharray="" clip-path="url(#DloyxRqNmHqx)"/><path fill="none" stroke="rgb(0,0,0)" paint-order="fill" d="M 141.80435180664062 86.04327392578125 L 151.80435180664062 86.04327392578125" stroke-opacity="1" stroke-linejoin="bevel" stroke-miterlimit="10" stroke-dasharray="" clip-path="url(#DloyxRqNmHqx)"/><path fill="none" stroke="rgb(0,0,0)" paint-order="fill" d="M 204.4130401611328 76.73812103271484 L 214.4130401611328 76.73812103271484" stroke-opacity="1" stroke-linejoin="bevel" stroke-miterlimit="10" stroke-dasharray="" clip-path="url(#DloyxRqNmHqx)"/><path fill="none" stroke="rgb(0,0,0)" paint-order="fill" d="M 273.978271484375 133.6801300048828 L 283.978271484375 133.6801300048828" stroke-opacity="1" stroke-linejoin="bevel" stroke-miterlimit="10" stroke-dasharray="" clip-path="url(#DloyxRqNmHqx)"/><path fill="none" stroke="rgb(0,0,0)" paint-order="fill" d="M 333.10870361328125 233.47073364257812 L 343.10870361328125 233.47073364257812" stroke-opacity="1" stroke-linejoin="bevel" stroke-miterlimit="10" stroke-dasharray="" clip-path="url(#DloyxRqNmHqx)"/><path fill="none" stroke="rgb(0,0,0)" paint-order="fill" d="M 378.3260803222656 273.5865783691406 L 388.3260803222656 273.5865783691406" stroke-opacity="1" stroke-linejoin="bevel" stroke-miterlimit="10" stroke-dasharray="" clip-path="url(#DloyxRqNmHqx)"/><path fill="none" stroke="rgb(0,0,0)" paint-order="fill" d="M 409.63043212890625 284.84912109375 L 419.63043212890625 284.84912109375" stroke-opacity="1" stroke-linejoin="bevel" stroke-miterlimit="10" stroke-dasharray="" clip-path="url(#DloyxRqNmHqx)"/><path fill="none" stroke="rgb(0,0,0)" paint-order="fill" d="M 437.4565124511719 286.289794921875 L 447.4565124511719 286.289794921875" stroke-opacity="1" stroke-linejoin="bevel" stroke-miterlimit="10" stroke-dasharray="" clip-path="url(#DloyxRqNmHqx)"/><path fill="none" stroke="rgb(0,0,0)" paint-order="fill" d="M 444.4130554199219 287.0583190917969 L 454.4130554199219 287.0583190917969" stroke-opacity="1" stroke-linejoin="bevel" stroke-miterlimit="10" stroke-dasharray="" clip-path="url(#DloyxRqNmHqx)"/><path fill="none" stroke="rgb(0,0,0)" paint-order="fill" d="M 106.58695983886719 147.79681396484375 L 96.58695983886719 147.79681396484375" stroke-opacity="1" stroke-linejoin="bevel" stroke-miterlimit="10" stroke-dasharray="" clip-path="url(#DloyxRqNmHqx)"/><path fill="none" stroke="rgb(0,0,0)" paint-order="fill" d="M 151.80435180664062 133.37747192382812 L 141.80435180664062 133.37747192382812" stroke-opacity="1" stroke-linejoin="bevel" stroke-miterlimit="10" stroke-dasharray="" clip-path="url(#DloyxRqNmHqx)"/><path fill="none" stroke="rgb(0,0,0)" paint-order="fill" d="M 214.4130401611328 178.34710693359375 L 204.4130401611328 178.34710693359375" stroke-opacity="1" stroke-linejoin="bevel" stroke-miterlimit="10" stroke-dasharray="" clip-path="url(#DloyxRqNmHqx)"/><path fill="none" stroke="rgb(0,0,0)" paint-order="fill" d="M 283.978271484375 265.2202453613281 L 273.978271484375 265.2202453613281" stroke-opacity="1" stroke-linejoin="bevel" stroke-miterlimit="10" stroke-dasharray="" clip-path="url(#DloyxRqNmHqx)"/><path fill="none" stroke="rgb(0,0,0)" paint-order="fill" d="M 343.10870361328125 285.47088623046875 L 333.10870361328125 285.47088623046875" stroke-opacity="1" stroke-linejoin="bevel" stroke-miterlimit="10" stroke-dasharray="" clip-path="url(#DloyxRqNmHqx)"/><path fill="none" stroke="rgb(0,0,0)" paint-order="fill" d="M 388.3260803222656 286.8027648925781 L 378.3260803222656 286.8027648925781" stroke-opacity="1" stroke-linejoin="bevel" stroke-miterlimit="10" stroke-dasharray="" clip-path="url(#DloyxRqNmHqx)"/><path fill="none" stroke="rgb(0,0,0)" paint-order="fill" d="M 419.63043212890625 286.4422302246094 L 409.63043212890625 286.4422302246094" stroke-opacity="1" stroke-linejoin="bevel" stroke-miterlimit="10" stroke-dasharray="" clip-path="url(#DloyxRqNmHqx)"/><path fill="none" stroke="rgb(0,0,0)" paint-order="fill" d="M 447.4565124511719 286.4187927246094 L 437.4565124511719 286.4187927246094" stroke-opacity="1" stroke-linejoin="bevel" stroke-miterlimit="10" stroke-dasharray="" clip-path="url(#DloyxRqNmHqx)"/><path fill="none" stroke="rgb(0,0,0)" paint-order="fill" d="M 454.4130554199219 286.7695617675781 L 444.4130554199219 286.7695617675781" stroke-opacity="1" stroke-linejoin="bevel" stroke-miterlimit="10" stroke-dasharray="" clip-path="url(#DloyxRqNmHqx)"/><path fill="none" stroke="rgb(0,0,0)" paint-order="fill" d="M 106.58695983886719 93.84984588623047 L 96.58695983886719 93.84984588623047" stroke-opacity="1" stroke-linejoin="bevel" stroke-miterlimit="10" stroke-dasharray="" clip-path="url(#DloyxRqNmHqx)"/><path fill="none" stroke="rgb(0,0,0)" paint-order="fill" d="M 151.80435180664062 54.55595779418945 L 141.80435180664062 54.55595779418945" stroke-opacity="1" stroke-linejoin="bevel" stroke-miterlimit="10" stroke-dasharray="" clip-path="url(#DloyxRqNmHqx)"/><path fill="none" stroke="rgb(0,0,0)" paint-order="fill" d="M 214.4130401611328 59.177242279052734 L 204.4130401611328 59.177242279052734" stroke-opacity="1" stroke-linejoin="bevel" stroke-miterlimit="10" stroke-dasharray="" clip-path="url(#DloyxRqNmHqx)"/><path fill="none" stroke="rgb(0,0,0)" paint-order="fill" d="M 283.978271484375 126.69410705566406 L 273.978271484375 126.69410705566406" stroke-opacity="1" stroke-linejoin="bevel" stroke-miterlimit="10" stroke-dasharray="" clip-path="url(#DloyxRqNmHqx)"/><path fill="none" stroke="rgb(0,0,0)" paint-order="fill" d="M 343.10870361328125 224.62098693847656 L 333.10870361328125 224.62098693847656" stroke-opacity="1" stroke-linejoin="bevel" stroke-miterlimit="10" stroke-dasharray="" clip-path="url(#DloyxRqNmHqx)"/><path fill="none" stroke="rgb(0,0,0)" paint-order="fill" d="M 388.3260803222656 269.36187744140625 L 378.3260803222656 269.36187744140625" stroke-opacity="1" stroke-linejoin="bevel" stroke-miterlimit="10" stroke-dasharray="" clip-path="url(#DloyxRqNmHqx)"/><path fill="none" stroke="rgb(0,0,0)" paint-order="fill" d="M 419.63043212890625 284.0483703613281 L 409.63043212890625 284.0483703613281" stroke-opacity="1" stroke-linejoin="bevel" stroke-miterlimit="10" stroke-dasharray="" clip-path="url(#DloyxRqNmHqx)"/><path fill="none" stroke="rgb(0,0,0)" paint-order="fill" d="M 447.4565124511719 285.9579162597656 L 437.4565124511719 285.9579162597656" stroke-opacity="1" stroke-linejoin="bevel" stroke-miterlimit="10" stroke-dasharray="" clip-path="url(#DloyxRqNmHqx)"/><path fill="none" stroke="rgb(0,0,0)" paint-order="fill" d="M 454.4130554199219 286.66217041015625 L 444.4130554199219 286.66217041015625" stroke-opacity="1" stroke-linejoin="bevel" stroke-miterlimit="10" stroke-dasharray="" clip-path="url(#DloyxRqNmHqx)"/><path fill="none" stroke="rgb(128,128,128)" paint-order="fill" d="M 75.5 114.77077289770415 L 475.5 114.77077289770415" stroke-opacity="1" stroke-linejoin="bevel" stroke-miterlimit="10" stroke-width="3" stroke-dasharray="6" clip-path="url(#eDTDlzZywwTH)"/><path fill="none" stroke="rgb(128,128,128)" paint-order="fill" d="M 75.5 288.55539439387775 L 475.5 288.55539439387775" stroke-opacity="1" stroke-linejoin="bevel" stroke-miterlimit="10" stroke-width="3" stroke-dasharray="6" clip-path="url(#xrwAawZCWpVv)"/><path fill="rgb(22,189,207)" stroke="rgb(22,189,207)" paint-order="fill" d="M 96.58695983886719 153.82281494140625 L 106.58695983886719 153.82281494140625 L 106.58695983886719 163.82281494140625 L 96.58695983886719 163.82281494140625 L 96.58695983886719 153.82281494140625" fill-opacity="1" clip-path="url(#XMGpmPwmNayM)" stroke-opacity="1" stroke-linejoin="bevel" stroke-miterlimit="10" stroke-dasharray=""/><path fill="rgb(22,189,207)" stroke="rgb(22,189,207)" paint-order="fill" d="M 141.80435180664062 138.20689392089844 L 151.80435180664062 138.20689392089844 L 151.80435180664062 148.20689392089844 L 141.80435180664062 148.20689392089844 L 141.80435180664062 138.20689392089844" fill-opacity="1" clip-path="url(#XMGpmPwmNayM)" stroke-opacity="1" stroke-linejoin="bevel" stroke-miterlimit="10" stroke-dasharray=""/><path fill="rgb(22,189,207)" stroke="rgb(22,189,207)" paint-order="fill" d="M 204.4130401611328 181.73597717285156 L 214.4130401611328 181.73597717285156 L 214.4130401611328 191.73597717285156 L 204.4130401611328 191.73597717285156 L 204.4130401611328 181.73597717285156" fill-opacity="1" clip-path="url(#XMGpmPwmNayM)" stroke-opacity="1" stroke-linejoin="bevel" stroke-miterlimit="10" stroke-dasharray=""/><path fill="rgb(22,189,207)" stroke="rgb(22,189,207)" paint-order="fill" d="M 273.978271484375 260.9121398925781 L 283.978271484375 260.9121398925781 L 283.978271484375 270.9121398925781 L 273.978271484375 270.9121398925781 L 273.978271484375 260.9121398925781" fill-opacity="1" clip-path="url(#XMGpmPwmNayM)" stroke-opacity="1" stroke-linejoin="bevel" stroke-miterlimit="10" stroke-dasharray=""/><path fill="rgb(22,189,207)" stroke="rgb(22,189,207)" paint-order="fill" d="M 333.10870361328125 280.8238220214844 L 343.10870361328125 280.8238220214844 L 343.10870361328125 290.8238220214844 L 333.10870361328125 290.8238220214844 L 333.10870361328125 280.8238220214844" fill-opacity="1" clip-path="url(#XMGpmPwmNayM)" stroke-opacity="1" stroke-linejoin="bevel" stroke-miterlimit="10" stroke-dasharray=""/><path fill="rgb(22,189,207)" stroke="rgb(22,189,207)" paint-order="fill" d="M 378.3260803222656 282.0175476074219 L 388.3260803222656 282.0175476074219 L 388.3260803222656 292.0175476074219 L 378.3260803222656 292.0175476074219 L 378.3260803222656 282.0175476074219" fill-opacity="1" clip-path="url(#XMGpmPwmNayM)" stroke-opacity="1" stroke-linejoin="bevel" stroke-miterlimit="10" stroke-dasharray=""/><path fill="rgb(22,189,207)" stroke="rgb(22,189,207)" paint-order="fill" d="M 409.63043212890625 281.6370849609375 L 419.63043212890625 281.6370849609375 L 419.63043212890625 291.6370849609375 L 409.63043212890625 291.6370849609375 L 409.63043212890625 281.6370849609375" fill-opacity="1" clip-path="url(#XMGpmPwmNayM)" stroke-opacity="1" stroke-linejoin="bevel" stroke-miterlimit="10" stroke-dasharray=""/><path fill="rgb(22,189,207)" stroke="rgb(22,189,207)" paint-order="fill" d="M 437.4565124511719 281.556640625 L 447.4565124511719 281.556640625 L 447.4565124511719 291.556640625 L 437.4565124511719 291.556640625 L 437.4565124511719 281.556640625" fill-opacity="1" clip-path="url(#XMGpmPwmNayM)" stroke-opacity="1" stroke-linejoin="bevel" stroke-miterlimit="10" stroke-dasharray=""/><path fill="rgb(22,189,207)" stroke="rgb(22,189,207)" paint-order="fill" d="M 444.4130554199219 281.9894104003906 L 454.4130554199219 281.9894104003906 L 454.4130554199219 291.9894104003906 L 444.4130554199219 291.9894104003906 L 444.4130554199219 281.9894104003906" fill-opacity="1" clip-path="url(#XMGpmPwmNayM)" stroke-opacity="1" stroke-linejoin="bevel" stroke-miterlimit="10" stroke-dasharray=""/><path fill="rgb(47,161,218)" stroke="rgb(47,161,218)" paint-order="fill" d="M 106.58695983886719 104.27947235107422 A 5 5 0 0 1 96.58695983886719 104.27947235107422 A 5 5 0 0 1 106.58695983886719 104.27947235107422" fill-opacity="1" clip-path="url(#xfVsaxFKCJvK)" stroke-opacity="1" stroke-linejoin="bevel" stroke-miterlimit="10" stroke-dasharray=""/><path fill="rgb(47,161,218)" stroke="rgb(47,161,218)" paint-order="fill" d="M 151.80435180664062 70.29961395263672 A 5 5 0 0 1 141.80435180664062 70.29961395263672 A 5 5 0 0 1 151.80435180664062 70.29961395263672" fill-opacity="1" clip-path="url(#xfVsaxFKCJvK)" stroke-opacity="1" stroke-linejoin="bevel" stroke-miterlimit="10" stroke-dasharray=""/><path fill="rgb(47,161,218)" stroke="rgb(47,161,218)" paint-order="fill" d="M 214.4130401611328 67.95767974853516 A 5 5 0 0 1 204.4130401611328 67.95767974853516 A 5 5 0 0 1 214.4130401611328 67.95767974853516" fill-opacity="1" clip-path="url(#xfVsaxFKCJvK)" stroke-opacity="1" stroke-linejoin="bevel" stroke-miterlimit="10" stroke-dasharray=""/><path fill="rgb(47,161,218)" stroke="rgb(47,161,218)" paint-order="fill" d="M 283.978271484375 130.18711853027344 A 5 5 0 0 1 273.978271484375 130.18711853027344 A 5 5 0 0 1 283.978271484375 130.18711853027344" fill-opacity="1" clip-path="url(#xfVsaxFKCJvK)" stroke-opacity="1" stroke-linejoin="bevel" stroke-miterlimit="10" stroke-dasharray=""/><path fill="rgb(47,161,218)" stroke="rgb(47,161,218)" paint-order="fill" d="M 343.10870361328125 229.0458526611328 A 5 5 0 0 1 333.10870361328125 229.0458526611328 A 5 5 0 0 1 343.10870361328125 229.0458526611328" fill-opacity="1" clip-path="url(#xfVsaxFKCJvK)" stroke-opacity="1" stroke-linejoin="bevel" stroke-miterlimit="10" stroke-dasharray=""/><path fill="rgb(47,161,218)" stroke="rgb(47,161,218)" paint-order="fill" d="M 388.3260803222656 271.4742431640625 A 5 5 0 0 1 378.3260803222656 271.4742431640625 A 5 5 0 0 1 388.3260803222656 271.4742431640625" fill-opacity="1" clip-path="url(#xfVsaxFKCJvK)" stroke-opacity="1" stroke-linejoin="bevel" stroke-miterlimit="10" stroke-dasharray=""/><path fill="rgb(47,161,218)" stroke="rgb(47,161,218)" paint-order="fill" d="M 419.63043212890625 284.44873046875 A 5 5 0 0 1 409.63043212890625 284.44873046875 A 5 5 0 0 1 419.63043212890625 284.44873046875" fill-opacity="1" clip-path="url(#xfVsaxFKCJvK)" stroke-opacity="1" stroke-linejoin="bevel" stroke-miterlimit="10" stroke-dasharray=""/><path fill="rgb(47,161,218)" stroke="rgb(47,161,218)" paint-order="fill" d="M 447.4565124511719 286.12384033203125 A 5 5 0 0 1 437.4565124511719 286.12384033203125 A 5 5 0 0 1 447.4565124511719 286.12384033203125" fill-opacity="1" clip-path="url(#xfVsaxFKCJvK)" stroke-opacity="1" stroke-linejoin="bevel" stroke-miterlimit="10" stroke-dasharray=""/><path fill="rgb(47,161,218)" stroke="rgb(47,161,218)" paint-order="fill" d="M 454.4130554199219 286.8602294921875 A 5 5 0 0 1 444.4130554199219 286.8602294921875 A 5 5 0 0 1 454.4130554199219 286.8602294921875" fill-opacity="1" clip-path="url(#xfVsaxFKCJvK)" stroke-opacity="1" stroke-linejoin="bevel" stroke-miterlimit="10" stroke-dasharray=""/><path fill="none" stroke="rgb(22,189,207)" paint-order="fill" d="M 101.58695983886719 158.82281494140625 L 146.80435180664062 143.20689392089844 L 209.4130401611328 186.73597717285156 L 278.978271484375 265.9121398925781 L 338.10870361328125 285.8238220214844 L 383.3260803222656 287.0175476074219 L 414.63043212890625 286.6370849609375 L 442.4565124511719 286.556640625 L 449.4130554199219 286.9894104003906" stroke-opacity="1" stroke-linejoin="bevel" stroke-miterlimit="10" stroke-width="2" stroke-dasharray="" clip-path="url(#csIuqThoZLNG)"/><path fill="none" stroke="rgb(47,161,218)" paint-order="fill" d="M 101.58695983886719 104.27947235107422 L 146.80435180664062 70.29961395263672 L 209.4130401611328 67.95767974853516 L 278.978271484375 130.18711853027344 L 338.10870361328125 229.0458526611328 L 383.3260803222656 271.4742431640625 L 414.63043212890625 284.44873046875 L 442.4565124511719 286.12384033203125 L 449.4130554199219 286.8602294921875" stroke-opacity="1" stroke-linejoin="bevel" stroke-miterlimit="10" stroke-width="2" stroke-dasharray="" clip-path="url(#CwVXrWzeIxrm)"/><path fill="none" stroke="rgb(0,0,0)" paint-order="fill" d="M 75.5 310.5 L 475.5 310.5" stroke-opacity="1" stroke-linejoin="bevel" stroke-miterlimit="10" stroke-dasharray=""/><path fill="none" stroke="rgb(0,0,0)" paint-order="fill" d="M 101.5 316.5 L 101.5 308.5 M 171.5 316.5 L 171.5 308.5 M 240.5 316.5 L 240.5 308.5 M 310.5 316.5 L 310.5 308.5 M 379.5 316.5 L 379.5 308.5 M 449.5 316.5 L 449.5 308.5" stroke-opacity="1" stroke-linejoin="bevel" stroke-miterlimit="10" stroke-dasharray=""/><path fill="none" stroke="rgb(0,0,0)" paint-order="fill" d="" stroke-opacity="1" stroke-linejoin="bevel" stroke-miterlimit="10" stroke-dasharray=""/><text fill="rgb(68,68,68)" stroke="none" font-family="helvetica" font-size="14pt" font-style="normal" font-weight="normal" text-decoration="normal" x="90.70362663269043" y="334.3893229166667" text-anchor="start" dominant-baseline="alphabetic" transform="matrix(1, 0, 0, 1, 0.5, 0.5)" fill-opacity="1">32</text><text fill="rgb(68,68,68)" stroke="none" font-family="helvetica" font-size="14pt" font-style="normal" font-weight="normal" text-decoration="normal" x="160.26884269714355" y="334.3893229166667" text-anchor="start" dominant-baseline="alphabetic" transform="matrix(1, 0, 0, 1, 0.5, 0.5)" fill-opacity="1">34</text><text fill="rgb(68,68,68)" stroke="none" font-family="helvetica" font-size="14pt" font-style="normal" font-weight="normal" text-decoration="normal" x="229.83405876159668" y="334.3893229166667" text-anchor="start" dominant-baseline="alphabetic" transform="matrix(1, 0, 0, 1, 0.5, 0.5)" fill-opacity="1">36</text><text fill="rgb(68,68,68)" stroke="none" font-family="helvetica" font-size="14pt" font-style="normal" font-weight="normal" text-decoration="normal" x="299.39929008483887" y="334.3893229166667" text-anchor="start" dominant-baseline="alphabetic" transform="matrix(1, 0, 0, 1, 0.5, 0.5)" fill-opacity="1">38</text><text fill="rgb(68,68,68)" stroke="none" font-family="helvetica" font-size="14pt" font-style="normal" font-weight="normal" text-decoration="normal" x="368.964506149292" y="334.3893229166667" text-anchor="start" dominant-baseline="alphabetic" transform="matrix(1, 0, 0, 1, 0.5, 0.5)" fill-opacity="1">40</text><text fill="rgb(68,68,68)" stroke="none" font-family="helvetica" font-size="14pt" font-style="normal" font-weight="normal" text-decoration="normal" x="438.5297222137451" y="334.3893229166667" text-anchor="start" dominant-baseline="alphabetic" transform="matrix(1, 0, 0, 1, 0.5, 0.5)" fill-opacity="1">42</text><text fill="rgb(68,68,68)" stroke="none" font-family="helvetica" font-size="14pt" font-style="italic" font-weight="normal" text-decoration="normal" x="205.39167022705078" y="360.29036458333337" text-anchor="start" dominant-baseline="alphabetic" transform="matrix(1, 0, 0, 1, 0.5, 0.5)" fill-opacity="1">temperature (°C)</text><path fill="none" stroke="rgb(0,0,0)" paint-order="fill" d="M 75.5 310.5 L 75.5 10.5" stroke-opacity="1" stroke-linejoin="bevel" stroke-miterlimit="10" stroke-dasharray=""/><path fill="none" stroke="rgb(0,0,0)" paint-order="fill" d="M 69.5 288.5 L 77.5 288.5 M 69.5 201.5 L 77.5 201.5 M 69.5 114.5 L 77.5 114.5 M 69.5 27.5 L 77.5 27.5" stroke-opacity="1" stroke-linejoin="bevel" stroke-miterlimit="10" stroke-dasharray=""/><path fill="none" stroke="rgb(0,0,0)" paint-order="fill" d="" stroke-opacity="1" stroke-linejoin="bevel" stroke-miterlimit="10" stroke-dasharray=""/><text fill="rgb(68,68,68)" stroke="none" font-family="helvetica" font-size="14pt" font-style="normal" font-weight="normal" text-decoration="normal" x="53.61666679382324" y="294.75005086263025" text-anchor="start" dominant-baseline="alphabetic" transform="matrix(1, 0, 0, 1, 0.5, 0.5)" fill-opacity="1">0</text><text fill="rgb(68,68,68)" stroke="none" font-family="helvetica" font-size="14pt" font-style="normal" font-weight="normal" text-decoration="normal" x="43.233333587646484" y="207.85774739583331" text-anchor="start" dominant-baseline="alphabetic" transform="matrix(1, 0, 0, 1, 0.5, 0.5)" fill-opacity="1">50</text><text fill="rgb(68,68,68)" stroke="none" font-family="helvetica" font-size="14pt" font-style="normal" font-weight="normal" text-decoration="normal" x="32.85000038146973" y="120.96543629964194" text-anchor="start" dominant-baseline="alphabetic" transform="matrix(1, 0, 0, 1, 0.5, 0.5)" fill-opacity="1">100</text><text fill="rgb(68,68,68)" stroke="none" font-family="helvetica" font-size="14pt" font-style="normal" font-weight="normal" text-decoration="normal" x="32.85000038146973" y="34.07312329610189" text-anchor="start" dominant-baseline="alphabetic" transform="matrix(1, 0, 0, 1, 0.5, 0.5)" fill-opacity="1">150</text><text fill="rgb(68,68,68)" stroke="none" font-family="helvetica" font-size="14pt" font-style="italic" font-weight="normal" text-decoration="normal" x="-37.39999961853027" y="155.87109375" text-anchor="start" dominant-baseline="alphabetic" transform="matrix(6.123233995736766e-17, -1, 1, 6.123233995736766e-17, -134.64999961853027, 185.35000038146973)" fill-opacity="1">% wt activation</text><path fill="rgb(255,255,255)" stroke="none" paint-order="stroke" d="M 395.8833351135254 20.5 L 465.5 20.5 L 465.5 67.23177083333334 L 395.8833351135254 67.23177083333334 L 395.8833351135254 20.5" fill-opacity="0.9490196078431372" clip-path="url(#HWawDTEWNqgb)"/><g clip-path="url(#HWawDTEWNqgb)"><text fill="rgb(68,68,68)" stroke="none" font-family="helvetica" font-size="14pt" font-style="normal" font-weight="normal" text-decoration="normal" x="420.3833351135254" y="30.932942708333336" text-anchor="start" dominant-baseline="central" transform="matrix(1, 0, 0, 1, 0.5, 0.5)" fill-opacity="1">TcI38</text></g><path fill="rgb(22,189,207)" stroke="rgb(22,189,207)" paint-order="fill" d="M 401.8833351135254 26.5 L 409.8833351135254 26.5 L 409.8833351135254 34.5 L 401.8833351135254 34.5 L 401.8833351135254 26.5" fill-opacity="1" clip-path="url(#HWawDTEWNqgb)" stroke-opacity="1" stroke-linejoin="bevel" stroke-miterlimit="10" stroke-dasharray=""/><path fill="none" stroke="rgb(22,189,207)" paint-order="fill" d="M 395.8833351135254 30.5 L 415.8833351135254 30.5" stroke-opacity="1" stroke-linejoin="bevel" stroke-miterlimit="10" stroke-width="2" stroke-dasharray="" clip-path="url(#HWawDTEWNqgb)"/><g clip-path="url(#HWawDTEWNqgb)"><text fill="rgb(68,68,68)" stroke="none" font-family="helvetica" font-size="14pt" font-style="normal" font-weight="normal" text-decoration="normal" x="420.3833351135254" y="55.79882812500001" text-anchor="start" dominant-baseline="central" transform="matrix(1, 0, 0, 1, 0.5, 0.5)" fill-opacity="1">TcI39</text></g><path fill="rgb(47,161,218)" stroke="rgb(47,161,218)" paint-order="fill" d="M 409.8833351135254 55.36588541666667 A 4 4 0 0 1 401.8833351135254 55.36588541666667 A 4 4 0 0 1 409.8833351135254 55.36588541666667" fill-opacity="1" clip-path="url(#HWawDTEWNqgb)" stroke-opacity="1" stroke-linejoin="bevel" stroke-miterlimit="10" stroke-dasharray=""/><path fill="none" stroke="rgb(47,161,218)" paint-order="fill" d="M 395.8833351135254 55.36588541666667 L 415.8833351135254 55.36588541666667" stroke-opacity="1" stroke-linejoin="bevel" stroke-miterlimit="10" stroke-width="2" stroke-dasharray="" clip-path="url(#HWawDTEWNqgb)"/></svg>