<svg version="1.1" xmlns="http://www.w3.org/2000/svg" width="516" height="367"><defs><clipPath id="tXIkPIcWCJgh"><path fill="none" stroke="none" d="M 86.5 10.5 L 486.5 10.5 L 486.5 310.5 L 86.5 310.5 L 86.5 10.5"/></clipPath><clipPath id="rmIWFTHozfsR"><path fill="none" stroke="none" d="M 86.5 10.5 L 486.5 10.5 L 486.5 310.5 L 86.5 310.5 L 86.5 10.5"/></clipPath><clipPath id="aywyCSybfXhJ"><path fill="none" stroke="none" d="M 86.5 10.5 L 486.5 10.5 L 486.5 310.5 L 86.5 310.5 L 86.5 10.5"/></clipPath><clipPath id="odChGDkvHZsM"><path fill="none" stroke="none" d="M 86.5 10.5 L 486.5 10.5 L 486.5 310.5 L 86.5 310.5 L 86.5 10.5"/></clipPath><clipPath id="WwUfAlHdsNSd"><path fill="none" stroke="none" d="M 86.5 10.5 L 486.5 10.5 L 486.5 310.5 L 86.5 310.5 L 86.5 10.5"/></clipPath><clipPath id="fHTqZOHbdlMa"><path fill="none" stroke="none" d="M 86.5 10.5 L 486.5 10.5 L 486.5 310.5 L 86.5 310.5 L 86.5 10.5"/></clipPath><clipPath id="vEIUyAKHsWuQ"><path fill="none" stroke="none" d="M 86.5 10.5 L 486.5 10.5 L 486.5 310.5 L 86.5 310.5 L 86.5 10.5"/></clipPath><clipPath id="wTPEhgkvqpGH"><path fill="none" stroke="none" d="M 86.5 10.5 L 486.5 10.5 L 486.5 310.5 L 86.5 310.5 L 86.5 10.5"/></clipPath><clipPath id="QTfKuqTKplKh"><path fill="none" stroke="none" d="M 86.5 10.5 L 486.5 10.5 L 486.5 310.5 L 86.5 310.5 L 86.5 10.5"/></clipPath><clipPath id="teKAaWZEFZQt"><path fill="none" stroke="none" d="M 86.5 10.5 L 486.5 10.5 L 486.5 310.5 L 86.5 310.5 L 86.5 10.5"/></clipPath><clipPath id="TSKHNQMDILft"><path fill="none" stroke="none" d="M 86.5 10.5 L 486.5 10.5 L 486.5 310.5 L 86.5 310.5 L 86.5 10.5"/></clipPath></defs><path fill="rgb(255,255,255)" stroke="none" paint-order="stroke" d="M 0.5 0.5 L 516.5 0.5 L 516.5 367.5 L 0.5 367.5 L 0.5 0.5" fill-opacity="1"/><rect fill="#FFFFFF" stroke="none" x="86" y="10" width="400" height="300" transform="matrix(1, 0, 0, 1, 0.5, 0.5)"/><path fill="rgb(255,255,255)" stroke="none" paint-order="stroke" d="M 86.5 10.5 L 486.5 10.5 L 486.5 310.5 L 86.5 310.5 L 86.5 10.5" fill-opacity="1"/><path fill="none" stroke="rgb(0,0,0)" paint-order="fill" d="M 112.58695983886719 265.6803283691406 L 112.58695983886719 264.2339172363281" stroke-opacity="1" stroke-linejoin="bevel" stroke-miterlimit="10" stroke-dasharray="" clip-path="url(#aywyCSybfXhJ)"/><path fill="none" stroke="rgb(0,0,0)" paint-order="fill" d="M 112.58695983886719 285.2438049316406 L 112.58695983886719 285.1792907714844" stroke-opacity="1" stroke-linejoin="bevel" stroke-miterlimit="10" stroke-dasharray="" clip-path="url(#aywyCSybfXhJ)"/><path fill="none" stroke="rgb(0,0,0)" paint-order="fill" d="M 157.80435180664062 246.0280303955078 L 157.80435180664062 241.2681427001953" stroke-opacity="1" stroke-linejoin="bevel" stroke-miterlimit="10" stroke-dasharray="" clip-path="url(#aywyCSybfXhJ)"/><path fill="none" stroke="rgb(0,0,0)" paint-order="fill" d="M 157.80435180664062 285.08428955078125 L 157.80435180664062 285.0055236816406" stroke-opacity="1" stroke-linejoin="bevel" stroke-miterlimit="10" stroke-dasharray="" clip-path="url(#aywyCSybfXhJ)"/><path fill="none" stroke="rgb(0,0,0)" paint-order="fill" d="M 220.4130401611328 224.984130859375 L 220.4130401611328 216.56463623046875" stroke-opacity="1" stroke-linejoin="bevel" stroke-miterlimit="10" stroke-dasharray="" clip-path="url(#aywyCSybfXhJ)"/><path fill="none" stroke="rgb(0,0,0)" paint-order="fill" d="M 220.4130401611328 284.536376953125 L 220.4130401611328 284.1903991699219" stroke-opacity="1" stroke-linejoin="bevel" stroke-miterlimit="10" stroke-dasharray="" clip-path="url(#aywyCSybfXhJ)"/><path fill="none" stroke="rgb(0,0,0)" paint-order="fill" d="M 289.978271484375 190.56497192382812 L 289.978271484375 179.54275512695312" stroke-opacity="1" stroke-linejoin="bevel" stroke-miterlimit="10" stroke-dasharray="" clip-path="url(#aywyCSybfXhJ)"/><path fill="none" stroke="rgb(0,0,0)" paint-order="fill" d="M 289.978271484375 279.3546447753906 L 289.978271484375 278.7444152832031" stroke-opacity="1" stroke-linejoin="bevel" stroke-miterlimit="10" stroke-dasharray="" clip-path="url(#aywyCSybfXhJ)"/><path fill="none" stroke="rgb(0,0,0)" paint-order="fill" d="M 349.10870361328125 162.881103515625 L 349.10870361328125 147.2926483154297" stroke-opacity="1" stroke-linejoin="bevel" stroke-miterlimit="10" stroke-dasharray="" clip-path="url(#aywyCSybfXhJ)"/><path fill="none" stroke="rgb(0,0,0)" paint-order="fill" d="M 349.10870361328125 251.40835571289062 L 349.10870361328125 244.9361114501953" stroke-opacity="1" stroke-linejoin="bevel" stroke-miterlimit="10" stroke-dasharray="" clip-path="url(#aywyCSybfXhJ)"/><path fill="none" stroke="rgb(0,0,0)" paint-order="fill" d="M 394.3260803222656 190.9749755859375 L 394.3260803222656 178.53515625" stroke-opacity="1" stroke-linejoin="bevel" stroke-miterlimit="10" stroke-dasharray="" clip-path="url(#aywyCSybfXhJ)"/><path fill="none" stroke="rgb(0,0,0)" paint-order="fill" d="M 394.3260803222656 182.61997985839844 L 394.3260803222656 162.05755615234375" stroke-opacity="1" stroke-linejoin="bevel" stroke-miterlimit="10" stroke-dasharray="" clip-path="url(#aywyCSybfXhJ)"/><path fill="none" stroke="rgb(0,0,0)" paint-order="fill" d="M 425.63043212890625 229.45652770996094 L 425.63043212890625 224.75621032714844" stroke-opacity="1" stroke-linejoin="bevel" stroke-miterlimit="10" stroke-dasharray="" clip-path="url(#aywyCSybfXhJ)"/><path fill="none" stroke="rgb(0,0,0)" paint-order="fill" d="M 425.63043212890625 132.6270294189453 L 425.63043212890625 75.67003631591797" stroke-opacity="1" stroke-linejoin="bevel" stroke-miterlimit="10" stroke-dasharray="" clip-path="url(#aywyCSybfXhJ)"/><path fill="none" stroke="rgb(0,0,0)" paint-order="fill" d="M 453.4565124511719 259.77813720703125 L 453.4565124511719 256.830078125" stroke-opacity="1" stroke-linejoin="bevel" stroke-miterlimit="10" stroke-dasharray="" clip-path="url(#aywyCSybfXhJ)"/><path fill="none" stroke="rgb(0,0,0)" paint-order="fill" d="M 453.4565124511719 138.13316345214844 L 453.4565124511719 38.92766189575195" stroke-opacity="1" stroke-linejoin="bevel" stroke-miterlimit="10" stroke-dasharray="" clip-path="url(#aywyCSybfXhJ)"/><path fill="none" stroke="rgb(0,0,0)" paint-order="fill" d="M 460.4130554199219 269.5864562988281 L 460.4130554199219 268.5705261230469" stroke-opacity="1" stroke-linejoin="bevel" stroke-miterlimit="10" stroke-dasharray="" clip-path="url(#aywyCSybfXhJ)"/><path fill="none" stroke="rgb(0,0,0)" paint-order="fill" d="M 460.4130554199219 141.5137176513672 L 460.4130554199219 35.5" stroke-opacity="1" stroke-linejoin="bevel" stroke-miterlimit="10" stroke-dasharray="" clip-path="url(#aywyCSybfXhJ)"/><path fill="none" stroke="rgb(0,0,0)" paint-order="fill" d="M 107.58695983886719 265.6803283691406 L 117.58695983886719 265.6803283691406" stroke-opacity="1" stroke-linejoin="bevel" stroke-miterlimit="10" stroke-dasharray="" clip-path="url(#aywyCSybfXhJ)"/><path fill="none" stroke="rgb(0,0,0)" paint-order="fill" d="M 107.58695983886719 285.2438049316406 L 117.58695983886719 285.2438049316406" stroke-opacity="1" stroke-linejoin="bevel" stroke-miterlimit="10" stroke-dasharray="" clip-path="url(#aywyCSybfXhJ)"/><path fill="none" stroke="rgb(0,0,0)" paint-order="fill" d="M 152.80435180664062 246.0280303955078 L 162.80435180664062 246.0280303955078" stroke-opacity="1" stroke-linejoin="bevel" stroke-miterlimit="10" stroke-dasharray="" clip-path="url(#aywyCSybfXhJ)"/><path fill="none" stroke="rgb(0,0,0)" paint-order="fill" d="M 152.80435180664062 285.08428955078125 L 162.80435180664062 285.08428955078125" stroke-opacity="1" stroke-linejoin="bevel" stroke-miterlimit="10" stroke-dasharray="" clip-path="url(#aywyCSybfXhJ)"/><path fill="none" stroke="rgb(0,0,0)" paint-order="fill" d="M 215.4130401611328 224.984130859375 L 225.4130401611328 224.984130859375" stroke-opacity="1" stroke-linejoin="bevel" stroke-miterlimit="10" stroke-dasharray="" clip-path="url(#aywyCSybfXhJ)"/><path fill="none" stroke="rgb(0,0,0)" paint-order="fill" d="M 215.4130401611328 284.536376953125 L 225.4130401611328 284.536376953125" stroke-opacity="1" stroke-linejoin="bevel" stroke-miterlimit="10" stroke-dasharray="" clip-path="url(#aywyCSybfXhJ)"/><path fill="none" stroke="rgb(0,0,0)" paint-order="fill" d="M 284.978271484375 190.56497192382812 L 294.978271484375 190.56497192382812" stroke-opacity="1" stroke-linejoin="bevel" stroke-miterlimit="10" stroke-dasharray="" clip-path="url(#aywyCSybfXhJ)"/><path fill="none" stroke="rgb(0,0,0)" paint-order="fill" d="M 284.978271484375 279.3546447753906 L 294.978271484375 279.3546447753906" stroke-opacity="1" stroke-linejoin="bevel" stroke-miterlimit="10" stroke-dasharray="" clip-path="url(#aywyCSybfXhJ)"/><path fill="none" stroke="rgb(0,0,0)" paint-order="fill" d="M 344.10870361328125 162.881103515625 L 354.10870361328125 162.881103515625" stroke-opacity="1" stroke-linejoin="bevel" stroke-miterlimit="10" stroke-dasharray="" clip-path="url(#aywyCSybfXhJ)"/><path fill="none" stroke="rgb(0,0,0)" paint-order="fill" d="M 344.10870361328125 251.40835571289062 L 354.10870361328125 251.40835571289062" stroke-opacity="1" stroke-linejoin="bevel" stroke-miterlimit="10" stroke-dasharray="" clip-path="url(#aywyCSybfXhJ)"/><path fill="none" stroke="rgb(0,0,0)" paint-order="fill" d="M 389.3260803222656 190.9749755859375 L 399.3260803222656 190.9749755859375" stroke-opacity="1" stroke-linejoin="bevel" stroke-miterlimit="10" stroke-dasharray="" clip-path="url(#aywyCSybfXhJ)"/><path fill="none" stroke="rgb(0,0,0)" paint-order="fill" d="M 389.3260803222656 182.61997985839844 L 399.3260803222656 182.61997985839844" stroke-opacity="1" stroke-linejoin="bevel" stroke-miterlimit="10" stroke-dasharray="" clip-path="url(#aywyCSybfXhJ)"/><path fill="none" stroke="rgb(0,0,0)" paint-order="fill" d="M 420.63043212890625 229.45652770996094 L 430.63043212890625 229.45652770996094" stroke-opacity="1" stroke-linejoin="bevel" stroke-miterlimit="10" stroke-dasharray="" clip-path="url(#aywyCSybfXhJ)"/><path fill="none" stroke="rgb(0,0,0)" paint-order="fill" d="M 420.63043212890625 132.6270294189453 L 430.63043212890625 132.6270294189453" stroke-opacity="1" stroke-linejoin="bevel" stroke-miterlimit="10" stroke-dasharray="" clip-path="url(#aywyCSybfXhJ)"/><path fill="none" stroke="rgb(0,0,0)" paint-order="fill" d="M 448.4565124511719 259.77813720703125 L 458.4565124511719 259.77813720703125" stroke-opacity="1" stroke-linejoin="bevel" stroke-miterlimit="10" stroke-dasharray="" clip-path="url(#aywyCSybfXhJ)"/><path fill="none" stroke="rgb(0,0,0)" paint-order="fill" d="M 448.4565124511719 138.13316345214844 L 458.4565124511719 138.13316345214844" stroke-opacity="1" stroke-linejoin="bevel" stroke-miterlimit="10" stroke-dasharray="" clip-path="url(#aywyCSybfXhJ)"/><path fill="none" stroke="rgb(0,0,0)" paint-order="fill" d="M 455.4130554199219 269.5864562988281 L 465.4130554199219 269.5864562988281" stroke-opacity="1" stroke-linejoin="bevel" stroke-miterlimit="10" stroke-dasharray="" clip-path="url(#aywyCSybfXhJ)"/><path fill="none" stroke="rgb(0,0,0)" paint-order="fill" d="M 455.4130554199219 141.5137176513672 L 465.4130554199219 141.5137176513672" stroke-opacity="1" stroke-linejoin="bevel" stroke-miterlimit="10" stroke-dasharray="" clip-path="url(#aywyCSybfXhJ)"/><path fill="none" stroke="rgb(0,0,0)" paint-order="fill" d="M 117.58695983886719 264.2339172363281 L 107.58695983886719 264.2339172363281" stroke-opacity="1" stroke-linejoin="bevel" stroke-miterlimit="10" stroke-dasharray="" clip-path="url(#aywyCSybfXhJ)"/><path fill="none" stroke="rgb(0,0,0)" paint-order="fill" d="M 117.58695983886719 285.1792907714844 L 107.58695983886719 285.1792907714844" stroke-opacity="1" stroke-linejoin="bevel" stroke-miterlimit="10" stroke-dasharray="" clip-path="url(#aywyCSybfXhJ)"/><path fill="none" stroke="rgb(0,0,0)" paint-order="fill" d="M 162.80435180664062 241.2681427001953 L 152.80435180664062 241.2681427001953" stroke-opacity="1" stroke-linejoin="bevel" stroke-miterlimit="10" stroke-dasharray="" clip-path="url(#aywyCSybfXhJ)"/><path fill="none" stroke="rgb(0,0,0)" paint-order="fill" d="M 162.80435180664062 285.0055236816406 L 152.80435180664062 285.0055236816406" stroke-opacity="1" stroke-linejoin="bevel" stroke-miterlimit="10" stroke-dasharray="" clip-path="url(#aywyCSybfXhJ)"/><path fill="none" stroke="rgb(0,0,0)" paint-order="fill" d="M 225.4130401611328 216.56463623046875 L 215.4130401611328 216.56463623046875" stroke-opacity="1" stroke-linejoin="bevel" stroke-miterlimit="10" stroke-dasharray="" clip-path="url(#aywyCSybfXhJ)"/><path fill="none" stroke="rgb(0,0,0)" paint-order="fill" d="M 225.4130401611328 284.1903991699219 L 215.4130401611328 284.1903991699219" stroke-opacity="1" stroke-linejoin="bevel" stroke-miterlimit="10" stroke-dasharray="" clip-path="url(#aywyCSybfXhJ)"/><path fill="none" stroke="rgb(0,0,0)" paint-order="fill" d="M 294.978271484375 179.54275512695312 L 284.978271484375 179.54275512695312" stroke-opacity="1" stroke-linejoin="bevel" stroke-miterlimit="10" stroke-dasharray="" clip-path="url(#aywyCSybfXhJ)"/><path fill="none" stroke="rgb(0,0,0)" paint-order="fill" d="M 294.978271484375 278.7444152832031 L 284.978271484375 278.7444152832031" stroke-opacity="1" stroke-linejoin="bevel" stroke-miterlimit="10" stroke-dasharray="" clip-path="url(#aywyCSybfXhJ)"/><path fill="none" stroke="rgb(0,0,0)" paint-order="fill" d="M 354.10870361328125 147.2926483154297 L 344.10870361328125 147.2926483154297" stroke-opacity="1" stroke-linejoin="bevel" stroke-miterlimit="10" stroke-dasharray="" clip-path="url(#aywyCSybfXhJ)"/><path fill="none" stroke="rgb(0,0,0)" paint-order="fill" d="M 354.10870361328125 244.9361114501953 L 344.10870361328125 244.9361114501953" stroke-opacity="1" stroke-linejoin="bevel" stroke-miterlimit="10" stroke-dasharray="" clip-path="url(#aywyCSybfXhJ)"/><path fill="none" stroke="rgb(0,0,0)" paint-order="fill" d="M 399.3260803222656 178.53515625 L 389.3260803222656 178.53515625" stroke-opacity="1" stroke-linejoin="bevel" stroke-miterlimit="10" stroke-dasharray="" clip-path="url(#aywyCSybfXhJ)"/><path fill="none" stroke="rgb(0,0,0)" paint-order="fill" d="M 399.3260803222656 162.05755615234375 L 389.3260803222656 162.05755615234375" stroke-opacity="1" stroke-linejoin="bevel" stroke-miterlimit="10" stroke-dasharray="" clip-path="url(#aywyCSybfXhJ)"/><path fill="none" stroke="rgb(0,0,0)" paint-order="fill" d="M 430.63043212890625 224.75621032714844 L 420.63043212890625 224.75621032714844" stroke-opacity="1" stroke-linejoin="bevel" stroke-miterlimit="10" stroke-dasharray="" clip-path="url(#aywyCSybfXhJ)"/><path fill="none" stroke="rgb(0,0,0)" paint-order="fill" d="M 430.63043212890625 75.67003631591797 L 420.63043212890625 75.67003631591797" stroke-opacity="1" stroke-linejoin="bevel" stroke-miterlimit="10" stroke-dasharray="" clip-path="url(#aywyCSybfXhJ)"/><path fill="none" stroke="rgb(0,0,0)" paint-order="fill" d="M 458.4565124511719 256.830078125 L 448.4565124511719 256.830078125" stroke-opacity="1" stroke-linejoin="bevel" stroke-miterlimit="10" stroke-dasharray="" clip-path="url(#aywyCSybfXhJ)"/><path fill="none" stroke="rgb(0,0,0)" paint-order="fill" d="M 458.4565124511719 38.92766189575195 L 448.4565124511719 38.92766189575195" stroke-opacity="1" stroke-linejoin="bevel" stroke-miterlimit="10" stroke-dasharray="" clip-path="url(#aywyCSybfXhJ)"/><path fill="none" stroke="rgb(0,0,0)" paint-order="fill" d="M 465.4130554199219 268.5705261230469 L 455.4130554199219 268.5705261230469" stroke-opacity="1" stroke-linejoin="bevel" stroke-miterlimit="10" stroke-dasharray="" clip-path="url(#aywyCSybfXhJ)"/><path fill="none" stroke="rgb(0,0,0)" paint-order="fill" d="M 465.4130554199219 35.5 L 455.4130554199219 35.5" stroke-opacity="1" stroke-linejoin="bevel" stroke-miterlimit="10" stroke-dasharray="" clip-path="url(#aywyCSybfXhJ)"/><path fill="rgb(127,207,99)" stroke="rgb(127,207,99)" paint-order="fill" d="M 117.58695983886719 264.9571228027344 A 5 5 0 0 1 107.58695983886719 264.9571228027344 A 5 5 0 0 1 117.58695983886719 264.9571228027344" fill-opacity="1" clip-path="url(#odChGDkvHZsM)" stroke-opacity="1" stroke-linejoin="bevel" stroke-miterlimit="10" stroke-dasharray=""/><path fill="rgb(127,207,99)" stroke="rgb(127,207,99)" paint-order="fill" d="M 162.80435180664062 243.64808654785156 A 5 5 0 0 1 152.80435180664062 243.64808654785156 A 5 5 0 0 1 162.80435180664062 243.64808654785156" fill-opacity="1" clip-path="url(#odChGDkvHZsM)" stroke-opacity="1" stroke-linejoin="bevel" stroke-miterlimit="10" stroke-dasharray=""/><path fill="rgb(127,207,99)" stroke="rgb(127,207,99)" paint-order="fill" d="M 225.4130401611328 220.77438354492188 A 5 5 0 0 1 215.4130401611328 220.77438354492188 A 5 5 0 0 1 225.4130401611328 220.77438354492188" fill-opacity="1" clip-path="url(#odChGDkvHZsM)" stroke-opacity="1" stroke-linejoin="bevel" stroke-miterlimit="10" stroke-dasharray=""/><path fill="rgb(127,207,99)" stroke="rgb(127,207,99)" paint-order="fill" d="M 294.978271484375 185.05386352539062 A 5 5 0 0 1 284.978271484375 185.05386352539062 A 5 5 0 0 1 294.978271484375 185.05386352539062" fill-opacity="1" clip-path="url(#odChGDkvHZsM)" stroke-opacity="1" stroke-linejoin="bevel" stroke-miterlimit="10" stroke-dasharray=""/><path fill="rgb(127,207,99)" stroke="rgb(127,207,99)" paint-order="fill" d="M 354.10870361328125 155.08688354492188 A 5 5 0 0 1 344.10870361328125 155.08688354492188 A 5 5 0 0 1 354.10870361328125 155.08688354492188" fill-opacity="1" clip-path="url(#odChGDkvHZsM)" stroke-opacity="1" stroke-linejoin="bevel" stroke-miterlimit="10" stroke-dasharray=""/><path fill="rgb(127,207,99)" stroke="rgb(127,207,99)" paint-order="fill" d="M 399.3260803222656 184.75506591796875 A 5 5 0 0 1 389.3260803222656 184.75506591796875 A 5 5 0 0 1 399.3260803222656 184.75506591796875" fill-opacity="1" clip-path="url(#odChGDkvHZsM)" stroke-opacity="1" stroke-linejoin="bevel" stroke-miterlimit="10" stroke-dasharray=""/><path fill="rgb(127,207,99)" stroke="rgb(127,207,99)" paint-order="fill" d="M 430.63043212890625 227.1063690185547 A 5 5 0 0 1 420.63043212890625 227.1063690185547 A 5 5 0 0 1 430.63043212890625 227.1063690185547" fill-opacity="1" clip-path="url(#odChGDkvHZsM)" stroke-opacity="1" stroke-linejoin="bevel" stroke-miterlimit="10" stroke-dasharray=""/><path fill="rgb(127,207,99)" stroke="rgb(127,207,99)" paint-order="fill" d="M 458.4565124511719 258.3041076660156 A 5 5 0 0 1 448.4565124511719 258.3041076660156 A 5 5 0 0 1 458.4565124511719 258.3041076660156" fill-opacity="1" clip-path="url(#odChGDkvHZsM)" stroke-opacity="1" stroke-linejoin="bevel" stroke-miterlimit="10" stroke-dasharray=""/><path fill="rgb(127,207,99)" stroke="rgb(127,207,99)" paint-order="fill" d="M 465.4130554199219 269.0784912109375 A 5 5 0 0 1 455.4130554199219 269.0784912109375 A 5 5 0 0 1 465.4130554199219 269.0784912109375" fill-opacity="1" clip-path="url(#odChGDkvHZsM)" stroke-opacity="1" stroke-linejoin="bevel" stroke-miterlimit="10" stroke-dasharray=""/><path fill="rgb(255,147,255)" stroke="rgb(255,147,255)" paint-order="fill" d="M 107.58695983886719 280.2115478515625 L 117.58695983886719 280.2115478515625 L 117.58695983886719 290.2115478515625 L 107.58695983886719 290.2115478515625 L 107.58695983886719 280.2115478515625" fill-opacity="1" clip-path="url(#WwUfAlHdsNSd)" stroke-opacity="1" stroke-linejoin="bevel" stroke-miterlimit="10" stroke-dasharray=""/><path fill="rgb(255,147,255)" stroke="rgb(255,147,255)" paint-order="fill" d="M 152.80435180664062 280.0448913574219 L 162.80435180664062 280.0448913574219 L 162.80435180664062 290.0448913574219 L 152.80435180664062 290.0448913574219 L 152.80435180664062 280.0448913574219" fill-opacity="1" clip-path="url(#WwUfAlHdsNSd)" stroke-opacity="1" stroke-linejoin="bevel" stroke-miterlimit="10" stroke-dasharray=""/><path fill="rgb(255,147,255)" stroke="rgb(255,147,255)" paint-order="fill" d="M 215.4130401611328 279.3634033203125 L 225.4130401611328 279.3634033203125 L 225.4130401611328 289.3634033203125 L 215.4130401611328 289.3634033203125 L 215.4130401611328 279.3634033203125" fill-opacity="1" clip-path="url(#WwUfAlHdsNSd)" stroke-opacity="1" stroke-linejoin="bevel" stroke-miterlimit="10" stroke-dasharray=""/><path fill="rgb(255,147,255)" stroke="rgb(255,147,255)" paint-order="fill" d="M 284.978271484375 274.0495300292969 L 294.978271484375 274.0495300292969 L 294.978271484375 284.0495300292969 L 284.978271484375 284.0495300292969 L 284.978271484375 274.0495300292969" fill-opacity="1" clip-path="url(#WwUfAlHdsNSd)" stroke-opacity="1" stroke-linejoin="bevel" stroke-miterlimit="10" stroke-dasharray=""/><path fill="rgb(255,147,255)" stroke="rgb(255,147,255)" paint-order="fill" d="M 344.10870361328125 243.17222595214844 L 354.10870361328125 243.17222595214844 L 354.10870361328125 253.17222595214844 L 344.10870361328125 253.17222595214844 L 344.10870361328125 243.17222595214844" fill-opacity="1" clip-path="url(#WwUfAlHdsNSd)" stroke-opacity="1" stroke-linejoin="bevel" stroke-miterlimit="10" stroke-dasharray=""/><path fill="rgb(255,147,255)" stroke="rgb(255,147,255)" paint-order="fill" d="M 389.3260803222656 167.33877563476562 L 399.3260803222656 167.33877563476562 L 399.3260803222656 177.33877563476562 L 389.3260803222656 177.33877563476562 L 389.3260803222656 167.33877563476562" fill-opacity="1" clip-path="url(#WwUfAlHdsNSd)" stroke-opacity="1" stroke-linejoin="bevel" stroke-miterlimit="10" stroke-dasharray=""/><path fill="rgb(255,147,255)" stroke="rgb(255,147,255)" paint-order="fill" d="M 420.63043212890625 99.1485366821289 L 430.63043212890625 99.1485366821289 L 430.63043212890625 109.1485366821289 L 420.63043212890625 109.1485366821289 L 420.63043212890625 99.1485366821289" fill-opacity="1" clip-path="url(#WwUfAlHdsNSd)" stroke-opacity="1" stroke-linejoin="bevel" stroke-miterlimit="10" stroke-dasharray=""/><path fill="rgb(255,147,255)" stroke="rgb(255,147,255)" paint-order="fill" d="M 448.4565124511719 83.53041076660156 L 458.4565124511719 83.53041076660156 L 458.4565124511719 93.53041076660156 L 448.4565124511719 93.53041076660156 L 448.4565124511719 83.53041076660156" fill-opacity="1" clip-path="url(#WwUfAlHdsNSd)" stroke-opacity="1" stroke-linejoin="bevel" stroke-miterlimit="10" stroke-dasharray=""/><path fill="rgb(255,147,255)" stroke="rgb(255,147,255)" paint-order="fill" d="M 455.4130554199219 83.5068588256836 L 465.4130554199219 83.5068588256836 L 465.4130554199219 93.5068588256836 L 455.4130554199219 93.5068588256836 L 455.4130554199219 83.5068588256836" fill-opacity="1" clip-path="url(#WwUfAlHdsNSd)" stroke-opacity="1" stroke-linejoin="bevel" stroke-miterlimit="10" stroke-dasharray=""/><path fill="none" stroke="rgb(127,207,99)" paint-order="fill" d="M 112.58695983886719 264.9571228027344 L 157.80435180664062 243.64808654785156 L 220.4130401611328 220.77438354492188 L 289.978271484375 185.05386352539062 L 349.10870361328125 155.08688354492188 L 394.3260803222656 184.75506591796875 L 425.63043212890625 227.1063690185547 L 453.4565124511719 258.3041076660156 L 460.4130554199219 269.0784912109375" stroke-opacity="1" stroke-linejoin="bevel" stroke-miterlimit="10" stroke-width="2" stroke-dasharray="" clip-path="url(#fHTqZOHbdlMa)"/><path fill="none" stroke="rgb(255,147,255)" paint-order="fill" d="M 112.58695983886719 285.2115478515625 L 157.80435180664062 285.0448913574219 L 220.4130401611328 284.3634033203125 L 289.978271484375 279.0495300292969 L 349.10870361328125 248.17222595214844 L 394.3260803222656 172.33877563476562 L 425.63043212890625 104.1485366821289 L 453.4565124511719 88.53041076660156 L 460.4130554199219 88.5068588256836" stroke-opacity="1" stroke-linejoin="bevel" stroke-miterlimit="10" stroke-width="2" stroke-dasharray="" clip-path="url(#vEIUyAKHsWuQ)"/><path fill="none" stroke="rgb(255,147,255)" paint-order="fill" d="M 112.58695983886719 285.5 L 460.4130554199219 285.5" stroke-opacity="1" stroke-linejoin="bevel" stroke-miterlimit="10" stroke-width="2" stroke-dasharray="6" clip-path="url(#wTPEhgkvqpGH)"/><path fill="none" stroke="rgb(127,207,99)" paint-order="fill" d="M 112.58695983886719 285.15655517578125 L 460.4130554199219 285.15655517578125" stroke-opacity="1" stroke-linejoin="bevel" stroke-miterlimit="10" stroke-width="2" stroke-dasharray="2,4" clip-path="url(#QTfKuqTKplKh)"/><path fill="none" stroke="rgb(0,0,0)" paint-order="fill" d="M 86.5 310.5 L 486.5 310.5" stroke-opacity="1" stroke-linejoin="bevel" stroke-miterlimit="10" stroke-dasharray=""/><path fill="none" stroke="rgb(0,0,0)" paint-order="fill" d="M 112.5 316.5 L 112.5 308.5 M 182.5 316.5 L 182.5 308.5 M 251.5 316.5 L 251.5 308.5 M 321.5 316.5 L 321.5 308.5 M 390.5 316.5 L 390.5 308.5 M 460.5 316.5 L 460.5 308.5" stroke-opacity="1" stroke-linejoin="bevel" stroke-miterlimit="10" stroke-dasharray=""/><path fill="none" stroke="rgb(0,0,0)" paint-order="fill" d="" stroke-opacity="1" stroke-linejoin="bevel" stroke-miterlimit="10" stroke-dasharray=""/><text fill="rgb(68,68,68)" stroke="none" font-family="helvetica" font-size="14pt" font-style="normal" font-weight="normal" text-decoration="normal" x="101.70362663269043" y="334.3893229166667" text-anchor="start" dominant-baseline="alphabetic" transform="matrix(1, 0, 0, 1, 0.5, 0.5)" fill-opacity="1">32</text><text fill="rgb(68,68,68)" stroke="none" font-family="helvetica" font-size="14pt" font-style="normal" font-weight="normal" text-decoration="normal" x="171.26884269714355" y="334.3893229166667" text-anchor="start" dominant-baseline="alphabetic" transform="matrix(1, 0, 0, 1, 0.5, 0.5)" fill-opacity="1">34</text><text fill="rgb(68,68,68)" stroke="none" font-family="helvetica" font-size="14pt" font-style="normal" font-weight="normal" text-decoration="normal" x="240.83405876159668" y="334.3893229166667" text-anchor="start" dominant-baseline="alphabetic" transform="matrix(1, 0, 0, 1, 0.5, 0.5)" fill-opacity="1">36</text><text fill="rgb(68,68,68)" stroke="none" font-family="helvetica" font-size="14pt" font-style="normal" font-weight="normal" text-decoration="normal" x="310.39929008483887" y="334.3893229166667" text-anchor="start" dominant-baseline="alphabetic" transform="matrix(1, 0, 0, 1, 0.5, 0.5)" fill-opacity="1">38</text><text fill="rgb(68,68,68)" stroke="none" font-family="helvetica" font-size="14pt" font-style="normal" font-weight="normal" text-decoration="normal" x="379.964506149292" y="334.3893229166667" text-anchor="start" dominant-baseline="alphabetic" transform="matrix(1, 0, 0, 1, 0.5, 0.5)" fill-opacity="1">40</text><text fill="rgb(68,68,68)" stroke="none" font-family="helvetica" font-size="14pt" font-style="normal" font-weight="normal" text-decoration="normal" x="449.5297222137451" y="334.3893229166667" text-anchor="start" dominant-baseline="alphabetic" transform="matrix(1, 0, 0, 1, 0.5, 0.5)" fill-opacity="1">42</text><text fill="rgb(68,68,68)" stroke="none" font-family="helvetica" font-size="14pt" font-style="italic" font-weight="normal" text-decoration="normal" x="216.39167022705078" y="360.29036458333337" text-anchor="start" dominant-baseline="alphabetic" transform="matrix(1, 0, 0, 1, 0.5, 0.5)" fill-opacity="1">temperature (°C)</text><path fill="none" stroke="rgb(0,0,0)" paint-order="fill" d="M 86.5 310.5 L 86.5 10.5" stroke-opacity="1" stroke-linejoin="bevel" stroke-miterlimit="10" stroke-dasharray=""/><path fill="none" stroke="rgb(0,0,0)" paint-order="fill" d="M 80.5 293.5 L 88.5 293.5 M 80.5 240.5 L 88.5 240.5 M 80.5 187.5 L 88.5 187.5 M 80.5 134.5 L 88.5 134.5 M 80.5 81.5 L 88.5 81.5 M 80.5 28.5 L 88.5 28.5" stroke-opacity="1" stroke-linejoin="bevel" stroke-miterlimit="10" stroke-dasharray=""/><path fill="none" stroke="rgb(0,0,0)" paint-order="fill" d="" stroke-opacity="1" stroke-linejoin="bevel" stroke-miterlimit="10" stroke-dasharray=""/><text fill="rgb(68,68,68)" stroke="none" font-family="helvetica" font-size="14pt" font-style="normal" font-weight="normal" text-decoration="normal" x="64.61666679382324" y="299.52107747395837" text-anchor="start" dominant-baseline="alphabetic" transform="matrix(1, 0, 0, 1, 0.5, 0.5)" fill-opacity="1">0</text><text fill="rgb(68,68,68)" stroke="none" font-family="helvetica" font-size="14pt" font-style="normal" font-weight="normal" text-decoration="normal" x="43.85000038146973" y="246.64764912923175" text-anchor="start" dominant-baseline="alphabetic" transform="matrix(1, 0, 0, 1, 0.5, 0.5)" fill-opacity="1">200</text><text fill="rgb(68,68,68)" stroke="none" font-family="helvetica" font-size="14pt" font-style="normal" font-weight="normal" text-decoration="normal" x="43.85000038146973" y="193.77423604329425" text-anchor="start" dominant-baseline="alphabetic" transform="matrix(1, 0, 0, 1, 0.5, 0.5)" fill-opacity="1">400</text><text fill="rgb(68,68,68)" stroke="none" font-family="helvetica" font-size="14pt" font-style="normal" font-weight="normal" text-decoration="normal" x="43.85000038146973" y="140.90082295735678" text-anchor="start" dominant-baseline="alphabetic" transform="matrix(1, 0, 0, 1, 0.5, 0.5)" fill-opacity="1">600</text><text fill="rgb(68,68,68)" stroke="none" font-family="helvetica" font-size="14pt" font-style="normal" font-weight="normal" text-decoration="normal" x="43.85000038146973" y="88.02740987141928" text-anchor="start" dominant-baseline="alphabetic" transform="matrix(1, 0, 0, 1, 0.5, 0.5)" fill-opacity="1">800</text><text fill="rgb(68,68,68)" stroke="none" font-family="helvetica" font-size="14pt" font-style="normal" font-weight="normal" text-decoration="normal" x="33.46666717529297" y="35.153991063435875" text-anchor="start" dominant-baseline="alphabetic" transform="matrix(1, 0, 0, 1, 0.5, 0.5)" fill-opacity="1">1000</text><text fill="rgb(68,68,68)" stroke="none" font-family="helvetica" font-size="14pt" font-style="italic" font-weight="normal" text-decoration="normal" x="-77.7750015258789" y="155.87109375" text-anchor="start" dominant-baseline="alphabetic" transform="matrix(6.123233995736766e-17, -1, 1, 6.123233995736766e-17, -134.03333282470703, 185.96666717529297)" fill-opacity="1">mean fluorescence (a.u.)</text><path fill="rgb(255,255,255)" stroke="none" paint-order="stroke" d="M 96.5 20.5 L 159.8666648864746 20.5 L 159.8666648864746 92.09765625 L 96.5 92.09765625 L 96.5 20.5" fill-opacity="0.9490196078431372" clip-path="url(#teKAaWZEFZQt)"/><g clip-path="url(#teKAaWZEFZQt)"><text fill="rgb(68,68,68)" stroke="none" font-family="helvetica" font-size="14pt" font-style="normal" font-weight="normal" text-decoration="normal" x="121" y="30.932942708333336" text-anchor="start" dominant-baseline="central" transform="matrix(1, 0, 0, 1, 0.5, 0.5)" fill-opacity="1">GFP</text></g><path fill="rgb(127,207,99)" stroke="rgb(127,207,99)" paint-order="fill" d="M 110.5 30.5 A 4 4 0 0 1 102.5 30.5 A 4 4 0 0 1 110.5 30.5" fill-opacity="1" clip-path="url(#teKAaWZEFZQt)" stroke-opacity="1" stroke-linejoin="bevel" stroke-miterlimit="10" stroke-dasharray=""/><path fill="none" stroke="rgb(127,207,99)" paint-order="fill" d="M 96.5 30.5 L 116.5 30.5" stroke-opacity="1" stroke-linejoin="bevel" stroke-miterlimit="10" stroke-width="2" stroke-dasharray="" clip-path="url(#teKAaWZEFZQt)"/><g clip-path="url(#teKAaWZEFZQt)"><text fill="rgb(68,68,68)" stroke="none" font-family="helvetica" font-size="14pt" font-style="normal" font-weight="normal" text-decoration="normal" x="121" y="55.79882812500001" text-anchor="start" dominant-baseline="central" transform="matrix(1, 0, 0, 1, 0.5, 0.5)" fill-opacity="1">RFP</text></g><path fill="rgb(255,147,255)" stroke="rgb(255,147,255)" paint-order="fill" d="M 102.5 51.36588541666667 L 110.5 51.36588541666667 L 110.5 59.36588541666667 L 102.5 59.36588541666667 L 102.5 51.36588541666667" fill-opacity="1" clip-path="url(#teKAaWZEFZQt)" stroke-opacity="1" stroke-linejoin="bevel" stroke-miterlimit="10" stroke-dasharray=""/><path fill="none" stroke="rgb(255,147,255)" paint-order="fill" d="M 96.5 55.36588541666667 L 116.5 55.36588541666667" stroke-opacity="1" stroke-linejoin="bevel" stroke-miterlimit="10" stroke-width="2" stroke-dasharray="" clip-path="url(#teKAaWZEFZQt)"/><g clip-path="url(#teKAaWZEFZQt)"><text fill="rgb(68,68,68)" stroke="none" font-family="helvetica" font-size="14pt" font-style="normal" font-weight="normal" text-decoration="normal" x="121" y="80.66471354166667" text-anchor="start" dominant-baseline="central" transform="matrix(1, 0, 0, 1, 0.5, 0.5)" fill-opacity="1">NF</text></g><path fill="none" stroke="rgb(255,147,255)" paint-order="fill" d="M 96.5 80.23177083333334 L 116.5 80.23177083333334" stroke-opacity="1" stroke-linejoin="bevel" stroke-miterlimit="10" stroke-width="2" stroke-dasharray="6" clip-path="url(#teKAaWZEFZQt)"/><path fill="none" stroke="rgb(127,207,99)" paint-order="fill" d="M 96.5 80.23177083333334 L 116.5 80.23177083333334" stroke-opacity="1" stroke-linejoin="bevel" stroke-miterlimit="10" stroke-width="2" stroke-dasharray="2,4" clip-path="url(#teKAaWZEFZQt)"/></svg>